<svg xmlns="http://www.w3.org/2000/svg" xmlns:xlink="http://www.w3.org/1999/xlink" width="500" zoomAndPan="magnify" viewBox="0 0 375 119.999999" height="160" preserveAspectRatio="xMidYMid meet" version="1.0"><defs><g/></defs><g fill="#2b2b2b" fill-opacity="1"><g transform="translate(2.086643, 88.874997)"><g><path d="M 55.289062 -36.957031 C 55.578125 -39.089844 54.996094 -40.835938 53.445312 -42 C 52.183594 -42.96875 50.828125 -44.035156 49.46875 -45.007812 C 49.273438 -45.78125 48.886719 -46.558594 48.109375 -47.140625 C 38.605469 -53.542969 29.003906 -60.136719 18.332031 -63.535156 C 18.234375 -63.535156 18.136719 -63.628906 18.042969 -63.628906 C 17.363281 -63.921875 16.683594 -64.117188 16.003906 -64.40625 C 15.8125 -64.601562 15.519531 -64.792969 15.132812 -64.792969 C 11.929688 -65.375 6.109375 -66.636719 4.269531 -63.046875 C 3.199219 -60.816406 4.269531 -58.101562 6.109375 -56.550781 C 5.527344 -55.675781 4.851562 -54.996094 4.074219 -54.414062 C 4.851562 -51.117188 5.527344 -47.722656 6.207031 -44.425781 C 5.625 -44.425781 5.042969 -44.425781 4.460938 -44.328125 C 1.550781 -44.328125 0.386719 -39.476562 3.105469 -37.730469 C 3.976562 -37.148438 5.042969 -36.566406 6.015625 -36.179688 L 3.78125 -35.890625 C 4.851562 -35.5 5.917969 -35.113281 6.984375 -34.820312 C 7.371094 -34.726562 7.566406 -34.433594 7.566406 -34.144531 C 7.761719 -34.144531 7.953125 -34.144531 8.148438 -34.144531 L 8.730469 -30.75 C 9.503906 -26.1875 10.28125 -21.628906 11.058594 -17.070312 L 11.929688 -10.667969 C 12.125 -8.535156 11.929688 -6.207031 12.414062 -4.171875 C 12.414062 -3.105469 13.386719 -2.425781 14.160156 -2.617188 C 14.257812 -2.035156 14.453125 -1.550781 14.742188 -1.066406 C 15.90625 0.289062 17.847656 0.195312 19.109375 -0.871094 C 20.078125 -1.648438 20.757812 -2.617188 21.339844 -3.78125 C 21.339844 -4.269531 21.339844 -4.851562 21.242188 -5.433594 C 21.535156 -10.183594 21.046875 -15.132812 20.757812 -19.882812 C 20.5625 -24.347656 20.175781 -28.808594 19.691406 -33.171875 C 22.210938 -33.074219 24.832031 -32.882812 27.351562 -32.785156 C 27.839844 -31.914062 28.421875 -30.941406 29.003906 -30.070312 L 29.003906 -29.972656 C 29.585938 -29.003906 30.070312 -28.03125 30.554688 -26.964844 C 32.398438 -23.375 35.015625 -16.972656 36.082031 -14.453125 C 38.023438 -9.992188 39.964844 -5.433594 41.707031 -0.871094 C 42.097656 -0.679688 42.679688 -0.871094 42.96875 -1.164062 C 42.96875 -1.066406 43.066406 -1.066406 43.164062 -1.066406 C 44.035156 -0.679688 44.910156 -0.679688 45.78125 -0.777344 C 47.433594 -0.0976562 49.664062 -0.582031 49.953125 -2.714844 C 50.730469 -9.019531 47.335938 -15.132812 44.714844 -20.660156 C 42.679688 -24.832031 40.351562 -28.808594 37.730469 -32.6875 C 42.289062 -32.300781 46.851562 -31.914062 51.410156 -31.621094 C 52.960938 -31.425781 54.804688 -33.074219 54.996094 -34.917969 Z M 15.90625 -51.796875 L 15.617188 -53.347656 C 23.957031 -51.410156 31.71875 -47.238281 39.1875 -42.097656 L 29.777344 -43.261719 C 27.546875 -45.105469 24.347656 -47.722656 21.4375 -45.878906 C 20.953125 -45.492188 20.660156 -44.910156 20.5625 -44.425781 C 20.078125 -44.523438 19.496094 -44.523438 19.011719 -44.617188 C 18.625 -46.65625 18.136719 -48.691406 17.652344 -50.730469 C 17.554688 -51.601562 16.585938 -51.601562 16.101562 -51.117188 C 16.003906 -51.3125 16.003906 -51.601562 15.90625 -51.796875 Z M 22.792969 -8.148438 C 23.183594 -10.476562 23.957031 -11.445312 23.667969 -14.9375 C 23.183594 -20.757812 22.699219 -26.578125 21.726562 -32.203125 L 20.953125 -32.203125 C 22.117188 -24.25 22.40625 -16.199219 22.792969 -8.148438 Z M 22.792969 -8.148438 "/></g></g></g><g fill="#2b2b2b" fill-opacity="1"><g transform="translate(50.487309, 88.874997)"><g><path d="M 2.230469 -51.214844 C 2.035156 -51.019531 2.035156 -50.730469 2.230469 -50.632812 C 4.363281 -51.601562 6.5 -52.476562 8.730469 -53.15625 C 15.132812 -55.386719 21.726562 -56.839844 28.324219 -58.296875 C 32.105469 -59.167969 35.984375 -60.136719 39.769531 -61.109375 C 38.894531 -61.109375 38.023438 -61.109375 37.148438 -61.011719 C 32.980469 -60.71875 29.003906 -59.945312 25.023438 -59.167969 L 22.792969 -58.585938 C 15.8125 -56.742188 8.632812 -54.609375 2.230469 -51.214844 Z M 56.648438 -11.738281 C 57.808594 -12.609375 58.585938 -13.96875 58.488281 -15.714844 C 58.101562 -21.242188 56.257812 -29.777344 48.789062 -28.226562 C 47.722656 -27.933594 46.753906 -27.449219 45.6875 -27.160156 L 41.902344 -25.996094 C 39.574219 -25.21875 37.246094 -24.347656 34.917969 -23.472656 C 33.464844 -22.988281 32.007812 -22.40625 30.554688 -21.824219 L 22.308594 -18.625 C 20.175781 -17.75 18.042969 -16.878906 15.90625 -15.90625 L 15.617188 -15.714844 C 15.617188 -15.90625 15.617188 -16.003906 15.617188 -16.101562 L 15.035156 -22.40625 C 17.75 -23.765625 20.371094 -25.121094 23.183594 -26.285156 C 27.742188 -28.226562 32.300781 -29.679688 36.957031 -30.941406 C 39.285156 -31.523438 41.707031 -32.007812 44.035156 -32.398438 C 46.269531 -32.882812 48.402344 -32.785156 50.4375 -33.753906 C 52.183594 -34.628906 53.347656 -36.761719 52.960938 -38.605469 C 52.765625 -39.574219 52.183594 -40.546875 51.3125 -41.03125 C 51.214844 -41.03125 51.214844 -41.03125 51.117188 -41.125 C 51.019531 -41.515625 50.828125 -41.902344 50.632812 -42.289062 C 50.535156 -42.484375 50.4375 -42.777344 50.246094 -43.066406 C 48.886719 -45.394531 46.558594 -45.492188 44.132812 -45.394531 C 42.96875 -45.296875 41.902344 -45.199219 40.738281 -45.007812 L 39.476562 -44.714844 C 36.375 -43.84375 33.171875 -42.96875 30.070312 -42.195312 C 24.539062 -40.15625 19.207031 -37.828125 13.773438 -35.5 C 13.773438 -35.984375 13.191406 -39.476562 13.09375 -40.449219 L 13.289062 -40.640625 C 16.296875 -41.902344 19.398438 -43.066406 22.503906 -44.132812 C 23.570312 -44.617188 33.171875 -47.527344 38.121094 -48.886719 C 38.3125 -48.886719 38.507812 -48.984375 38.703125 -49.082031 C 40.933594 -49.664062 43.164062 -50.339844 45.296875 -51.019531 L 50.148438 -52.476562 C 50.535156 -54.414062 50.246094 -56.453125 49.566406 -58.488281 C 49.082031 -58.878906 48.5 -59.363281 48.015625 -59.75 L 46.460938 -60.332031 C 45.878906 -60.527344 45.199219 -60.625 44.523438 -60.71875 C 39.476562 -59.363281 34.433594 -58.003906 29.292969 -56.839844 C 22.699219 -55.484375 16.101562 -54.027344 9.699219 -51.796875 C 7.664062 -51.117188 5.527344 -50.339844 3.492188 -49.46875 C 3.394531 -49.175781 3.199219 -48.886719 3.105469 -48.691406 C 1.746094 -47.527344 0.871094 -46.074219 0.679688 -44.132812 C 0.484375 -42.484375 1.066406 -40.640625 2.230469 -39.382812 L 3.394531 -28.324219 L 4.558594 -16.683594 C 4.851562 -13.289062 5.042969 -9.796875 5.625 -6.5 C 4.753906 -3.976562 6.402344 -1.066406 8.828125 -0.0976562 C 8.730469 0.386719 8.730469 0.777344 8.921875 1.261719 C 9.699219 2.910156 11.445312 3.007812 12.996094 2.714844 C 13.386719 2.714844 13.96875 2.617188 13.96875 2.617188 C 13.871094 2.714844 19.398438 1.066406 20.5625 0.289062 L 20.660156 0.195312 C 21.726562 -0.289062 22.792969 -0.679688 23.863281 -1.164062 C 24.054688 -1.261719 24.347656 -1.359375 24.539062 -1.453125 L 24.636719 -1.453125 C 27.839844 -2.8125 31.136719 -3.976562 34.433594 -5.140625 C 41.320312 -7.566406 48.5 -9.410156 55.675781 -10.765625 C 56.257812 -10.863281 56.550781 -11.25 56.648438 -11.738281 Z M 33.171875 -32.300781 L 33.269531 -32.007812 C 32.6875 -31.816406 32.203125 -31.621094 31.621094 -31.332031 C 26.769531 -29.390625 21.726562 -27.546875 16.972656 -25.121094 C 17.75 -25.800781 18.332031 -26.769531 18.527344 -27.839844 C 20.371094 -28.324219 22.210938 -28.90625 24.152344 -29.488281 C 27.160156 -30.457031 30.167969 -31.332031 33.171875 -32.300781 Z M 11.738281 1.261719 C 13.675781 0.777344 15.519531 0 17.363281 -0.679688 C 19.207031 -1.261719 20.953125 -1.941406 22.699219 -2.617188 L 22.699219 -2.425781 C 21.242188 -1.648438 19.789062 -0.871094 18.234375 -0.0976562 C 17.554688 0.289062 16.78125 0.679688 16.003906 1.066406 C 15.90625 1.164062 15.8125 1.164062 15.714844 1.164062 C 15.421875 1.261719 13.191406 1.453125 11.738281 1.261719 Z M 11.738281 1.261719 "/></g></g></g><g fill="#2b2b2b" fill-opacity="1"><g transform="translate(99.85793, 88.874997)"><g><path d="M 42.097656 0.289062 C 43.941406 0.289062 45.492188 -0.871094 46.558594 -2.328125 C 45.78125 -14.257812 44.714844 -26.285156 42.777344 -38.121094 C 41.902344 -43.941406 40.933594 -49.855469 39.382812 -55.484375 C 38.894531 -57.324219 38.3125 -59.167969 37.925781 -61.011719 C 37.730469 -61.207031 37.539062 -61.398438 37.246094 -61.496094 C 35.597656 -62.660156 32.6875 -62.855469 31.523438 -60.71875 C 31.523438 -60.625 31.425781 -60.625 31.425781 -60.527344 C 30.75 -60.136719 30.167969 -59.460938 29.777344 -58.78125 C 28.710938 -56.839844 29.585938 -54.996094 30.070312 -53.15625 C 31.039062 -49.664062 31.621094 -46.171875 32.300781 -42.679688 C 33.171875 -37.730469 34.238281 -32.589844 34.726562 -27.742188 L 33.171875 -30.75 C 33.171875 -31.039062 33.171875 -31.332031 32.980469 -31.71875 C 31.039062 -35.695312 29.003906 -39.574219 26.769531 -43.359375 C 24.152344 -48.109375 21.4375 -52.765625 18.136719 -57.132812 C 16.296875 -59.554688 10.765625 -65.28125 7.761719 -61.300781 C 7.273438 -60.625 6.984375 -59.847656 6.984375 -59.070312 C 6.304688 -58.972656 5.625 -58.585938 5.140625 -58.199219 C 4.851562 -54.027344 5.042969 -49.757812 5.140625 -45.492188 C 5.335938 -38.894531 5.433594 -32.203125 5.722656 -25.605469 C 6.015625 -17.460938 6.304688 -9.3125 6.789062 -1.164062 C 7.46875 -0.289062 8.339844 0.386719 9.503906 0.679688 C 11.640625 1.359375 13.871094 0.582031 15.035156 -1.359375 C 19.011719 -1.941406 17.945312 -7.566406 17.847656 -10.574219 C 17.75 -14.453125 17.652344 -18.332031 17.460938 -22.210938 C 17.460938 -28.808594 17.554688 -35.402344 17.460938 -42 C 17.945312 -41.320312 18.429688 -40.546875 19.011719 -39.867188 L 35.890625 -9.699219 L 36.472656 -6.402344 C 36.957031 -3.878906 37.539062 -0.871094 40.15625 0.289062 C 40.738281 0.582031 41.515625 0.679688 42.097656 0.289062 Z M 47.527344 -3.296875 C 47.625 -4.65625 47.527344 -6.789062 47.433594 -7.46875 C 47.527344 -24.636719 45.394531 -41.804688 41.902344 -58.683594 C 41.707031 -59.652344 40.546875 -59.652344 40.058594 -59.070312 C 39.671875 -58.683594 39.671875 -58.296875 39.769531 -58.003906 C 43.746094 -39.964844 45.878906 -21.535156 47.140625 -3.007812 C 47.238281 -3.199219 47.335938 -3.296875 47.527344 -3.296875 Z M 5.042969 -10.378906 C 5.433594 -6.207031 5.820312 -6.402344 5.820312 -6.402344 L 4.945312 -28.226562 C 4.753906 -35.015625 4.558594 -41.804688 4.460938 -48.5 C 4.363281 -51.601562 4.269531 -54.707031 4.363281 -57.808594 C 3.6875 -56.257812 3.492188 -54.414062 3.589844 -52.765625 C 3.6875 -45.78125 3.78125 -38.800781 4.074219 -31.914062 C 4.363281 -24.929688 4.460938 -17.265625 5.042969 -10.378906 Z M 15.90625 -15.132812 C 16.003906 -13.96875 16.101562 -12.902344 16.101562 -11.738281 C 16.296875 -9.796875 16.390625 -7.855469 16.488281 -6.015625 C 16.585938 -5.140625 16.296875 -3.6875 15.714844 -2.714844 C 16.296875 -5.140625 15.324219 -7.371094 15.324219 -8.921875 L 15.421875 -14.742188 C 15.519531 -14.839844 15.617188 -14.839844 15.617188 -14.839844 Z M 15.90625 -15.132812 "/></g></g></g><g fill="#2b2b2b" fill-opacity="1"><g transform="translate(140.498919, 88.874997)"><g><path d="M 55.386719 -57.132812 C 57.714844 -58.101562 57.808594 -61.789062 55.578125 -63.046875 C 55.386719 -63.242188 55.191406 -63.339844 54.996094 -63.4375 C 55.191406 -63.535156 55.484375 -63.535156 55.675781 -63.535156 C 56.648438 -63.726562 56.355469 -65.375 55.484375 -65.28125 C 54.027344 -65.085938 52.574219 -64.988281 51.117188 -64.792969 C 50.535156 -64.890625 49.953125 -64.792969 49.46875 -64.792969 C 48.5 -64.699219 47.527344 -64.601562 46.460938 -64.40625 C 32.980469 -63.242188 19.398438 -62.953125 5.820312 -63.726562 C 5.527344 -63.824219 5.433594 -63.242188 5.722656 -63.242188 C 10.960938 -62.371094 16.199219 -61.789062 21.4375 -61.496094 C 21.4375 -61.398438 21.339844 -61.300781 21.339844 -61.207031 C 16.003906 -61.207031 10.765625 -61.59375 5.433594 -62.078125 C 3.296875 -62.273438 1.359375 -60.429688 0.777344 -58.488281 C 0.195312 -56.160156 1.359375 -53.832031 3.296875 -52.765625 C 3.878906 -51.214844 5.140625 -49.855469 6.402344 -48.984375 C 8.148438 -47.917969 10.28125 -47.625 12.320312 -47.335938 C 14.839844 -47.140625 17.460938 -47.042969 20.078125 -47.042969 C 21.339844 -47.042969 22.601562 -47.042969 23.863281 -47.042969 L 23.863281 -43.941406 L 23.667969 -39.671875 C 23.472656 -34.628906 23.183594 -29.585938 22.890625 -24.636719 C 22.699219 -19.691406 22.601562 -14.648438 22.890625 -9.699219 C 23.085938 -5.917969 23.957031 -1.453125 28.03125 -0.195312 C 30.070312 0.386719 32.496094 -0.777344 33.171875 -2.910156 C 33.851562 -4.851562 33.949219 -7.566406 34.335938 -9.3125 L 34.335938 -5.625 C 34.238281 -4.269531 34.238281 -2.910156 34.144531 -1.550781 L 34.144531 -1.359375 C 35.890625 -2.714844 36.277344 -5.042969 36.472656 -7.371094 C 36.375 -10.765625 36.179688 -14.160156 36.082031 -17.554688 C 36.082031 -23.472656 35.984375 -29.390625 35.984375 -35.308594 C 35.984375 -39.574219 36.082031 -43.84375 36.082031 -48.109375 C 41.03125 -48.789062 45.878906 -49.664062 50.828125 -50.632812 C 51.117188 -50.632812 51.3125 -50.828125 51.503906 -51.019531 C 51.992188 -51.117188 52.574219 -51.3125 52.960938 -51.601562 C 54.511719 -52.667969 54.902344 -54.414062 54.996094 -56.160156 C 55.191406 -56.453125 55.289062 -56.742188 55.386719 -57.132812 Z M 12.320312 -49.664062 C 9.992188 -49.757812 7.46875 -50.4375 5.917969 -51.894531 C 9.699219 -50.730469 13.578125 -50.050781 17.460938 -49.664062 C 15.714844 -49.566406 13.96875 -49.566406 12.320312 -49.664062 Z M 12.320312 -49.664062 "/></g></g></g><g fill="#2b2b2b" fill-opacity="1"><g transform="translate(187.929631, 88.874997)"><g><path d="M 2.230469 -51.214844 C 2.035156 -51.019531 2.035156 -50.730469 2.230469 -50.632812 C 4.363281 -51.601562 6.5 -52.476562 8.730469 -53.15625 C 15.132812 -55.386719 21.726562 -56.839844 28.324219 -58.296875 C 32.105469 -59.167969 35.984375 -60.136719 39.769531 -61.109375 C 38.894531 -61.109375 38.023438 -61.109375 37.148438 -61.011719 C 32.980469 -60.71875 29.003906 -59.945312 25.023438 -59.167969 L 22.792969 -58.585938 C 15.8125 -56.742188 8.632812 -54.609375 2.230469 -51.214844 Z M 56.648438 -11.738281 C 57.808594 -12.609375 58.585938 -13.96875 58.488281 -15.714844 C 58.101562 -21.242188 56.257812 -29.777344 48.789062 -28.226562 C 47.722656 -27.933594 46.753906 -27.449219 45.6875 -27.160156 L 41.902344 -25.996094 C 39.574219 -25.21875 37.246094 -24.347656 34.917969 -23.472656 C 33.464844 -22.988281 32.007812 -22.40625 30.554688 -21.824219 L 22.308594 -18.625 C 20.175781 -17.75 18.042969 -16.878906 15.90625 -15.90625 L 15.617188 -15.714844 C 15.617188 -15.90625 15.617188 -16.003906 15.617188 -16.101562 L 15.035156 -22.40625 C 17.75 -23.765625 20.371094 -25.121094 23.183594 -26.285156 C 27.742188 -28.226562 32.300781 -29.679688 36.957031 -30.941406 C 39.285156 -31.523438 41.707031 -32.007812 44.035156 -32.398438 C 46.269531 -32.882812 48.402344 -32.785156 50.4375 -33.753906 C 52.183594 -34.628906 53.347656 -36.761719 52.960938 -38.605469 C 52.765625 -39.574219 52.183594 -40.546875 51.3125 -41.03125 C 51.214844 -41.03125 51.214844 -41.03125 51.117188 -41.125 C 51.019531 -41.515625 50.828125 -41.902344 50.632812 -42.289062 C 50.535156 -42.484375 50.4375 -42.777344 50.246094 -43.066406 C 48.886719 -45.394531 46.558594 -45.492188 44.132812 -45.394531 C 42.96875 -45.296875 41.902344 -45.199219 40.738281 -45.007812 L 39.476562 -44.714844 C 36.375 -43.84375 33.171875 -42.96875 30.070312 -42.195312 C 24.539062 -40.15625 19.207031 -37.828125 13.773438 -35.5 C 13.773438 -35.984375 13.191406 -39.476562 13.09375 -40.449219 L 13.289062 -40.640625 C 16.296875 -41.902344 19.398438 -43.066406 22.503906 -44.132812 C 23.570312 -44.617188 33.171875 -47.527344 38.121094 -48.886719 C 38.3125 -48.886719 38.507812 -48.984375 38.703125 -49.082031 C 40.933594 -49.664062 43.164062 -50.339844 45.296875 -51.019531 L 50.148438 -52.476562 C 50.535156 -54.414062 50.246094 -56.453125 49.566406 -58.488281 C 49.082031 -58.878906 48.5 -59.363281 48.015625 -59.75 L 46.460938 -60.332031 C 45.878906 -60.527344 45.199219 -60.625 44.523438 -60.71875 C 39.476562 -59.363281 34.433594 -58.003906 29.292969 -56.839844 C 22.699219 -55.484375 16.101562 -54.027344 9.699219 -51.796875 C 7.664062 -51.117188 5.527344 -50.339844 3.492188 -49.46875 C 3.394531 -49.175781 3.199219 -48.886719 3.105469 -48.691406 C 1.746094 -47.527344 0.871094 -46.074219 0.679688 -44.132812 C 0.484375 -42.484375 1.066406 -40.640625 2.230469 -39.382812 L 3.394531 -28.324219 L 4.558594 -16.683594 C 4.851562 -13.289062 5.042969 -9.796875 5.625 -6.5 C 4.753906 -3.976562 6.402344 -1.066406 8.828125 -0.0976562 C 8.730469 0.386719 8.730469 0.777344 8.921875 1.261719 C 9.699219 2.910156 11.445312 3.007812 12.996094 2.714844 C 13.386719 2.714844 13.96875 2.617188 13.96875 2.617188 C 13.871094 2.714844 19.398438 1.066406 20.5625 0.289062 L 20.660156 0.195312 C 21.726562 -0.289062 22.792969 -0.679688 23.863281 -1.164062 C 24.054688 -1.261719 24.347656 -1.359375 24.539062 -1.453125 L 24.636719 -1.453125 C 27.839844 -2.8125 31.136719 -3.976562 34.433594 -5.140625 C 41.320312 -7.566406 48.5 -9.410156 55.675781 -10.765625 C 56.257812 -10.863281 56.550781 -11.25 56.648438 -11.738281 Z M 33.171875 -32.300781 L 33.269531 -32.007812 C 32.6875 -31.816406 32.203125 -31.621094 31.621094 -31.332031 C 26.769531 -29.390625 21.726562 -27.546875 16.972656 -25.121094 C 17.75 -25.800781 18.332031 -26.769531 18.527344 -27.839844 C 20.371094 -28.324219 22.210938 -28.90625 24.152344 -29.488281 C 27.160156 -30.457031 30.167969 -31.332031 33.171875 -32.300781 Z M 11.738281 1.261719 C 13.675781 0.777344 15.519531 0 17.363281 -0.679688 C 19.207031 -1.261719 20.953125 -1.941406 22.699219 -2.617188 L 22.699219 -2.425781 C 21.242188 -1.648438 19.789062 -0.871094 18.234375 -0.0976562 C 17.554688 0.289062 16.78125 0.679688 16.003906 1.066406 C 15.90625 1.164062 15.8125 1.164062 15.714844 1.164062 C 15.421875 1.261719 13.191406 1.453125 11.738281 1.261719 Z M 11.738281 1.261719 "/></g></g></g><g fill="#2b2b2b" fill-opacity="1"><g transform="translate(237.300252, 88.874997)"><g><path d="M 35.5 -2.910156 C 37.730469 4.074219 44.910156 3.878906 43.84375 -4.851562 C 43.066406 -10.667969 41.417969 -18.527344 40.15625 -24.25 C 45.492188 -27.644531 44.425781 -36.375 37.054688 -37.246094 C 36.375 -43.066406 35.792969 -57.714844 35.695312 -56.742188 C 35.308594 -53.542969 35.113281 -50.148438 35.015625 -46.851562 C 34.917969 -46.851562 34.917969 -46.851562 34.820312 -46.945312 C 34.433594 -50.730469 34.046875 -54.707031 33.753906 -58.585938 C 33.464844 -61.691406 31.425781 -63.628906 28.613281 -63.824219 C 27.839844 -65.375 25.898438 -66.539062 24.25 -66.441406 C 19.300781 -66.347656 17.363281 -60.332031 15.617188 -56.550781 C 13.09375 -50.535156 11.542969 -44.230469 10.183594 -37.828125 C -1.359375 -36.082031 -1.359375 -25.511719 4.851562 -23.957031 C 4.945312 -23.667969 4.851562 -23.28125 4.753906 -23.085938 C 5.527344 -23.085938 6.5 -23.183594 7.371094 -23.28125 C 5.917969 -17.652344 4.945312 -12.027344 4.171875 -6.304688 C 2.910156 2.8125 14.9375 4.171875 15.714844 -4.65625 L 16.296875 -9.019531 C 16.296875 -9.019531 17.945312 -18.914062 19.207031 -23.667969 L 20.078125 -23.667969 C 18.234375 -17.945312 17.363281 -12.027344 16.878906 -6.207031 C 16.78125 -5.042969 18.429688 -5.042969 18.429688 -6.207031 C 18.914062 -12.125 19.980469 -17.847656 21.4375 -23.667969 L 29.003906 -23.765625 C 29.777344 -20.273438 33.65625 -3.589844 35.5 -2.910156 Z M 21.144531 -36.277344 C 22.019531 -40.835938 23.183594 -44.714844 24.734375 -50.148438 C 25.703125 -45.6875 26.1875 -39.089844 26.578125 -36.664062 C 25.21875 -36.566406 22.503906 -36.472656 21.144531 -36.277344 Z M 21.144531 -36.277344 "/></g></g></g><g fill="#2b2b2b" fill-opacity="1"><g transform="translate(274.061397, 88.874997)"><g><path d="M 46.460938 -35.210938 C 46.363281 -37.539062 46.363281 -39.867188 46.460938 -42.289062 C 46.851562 -46.851562 47.820312 -51.601562 47.238281 -56.160156 C 46.945312 -58.78125 45.296875 -60.914062 42.484375 -60.914062 C 39.964844 -60.914062 37.730469 -58.78125 37.730469 -56.160156 C 37.828125 -54.511719 37.828125 -52.863281 37.828125 -51.214844 L 37.34375 -51.699219 C 35.402344 -53.445312 33.269531 -54.902344 31.136719 -56.257812 C 26.578125 -59.265625 21.824219 -61.398438 16.585938 -62.953125 C 16.003906 -63.144531 15.519531 -63.144531 15.132812 -63.046875 C 13.09375 -63.726562 10.960938 -64.308594 8.828125 -64.503906 C 5.527344 -64.792969 2.714844 -62.757812 1.941406 -59.554688 C 1.164062 -56.355469 2.910156 -53.542969 4.65625 -51.117188 C 8.246094 -46.460938 12.414062 -42.386719 16.972656 -38.703125 L 18.429688 -37.539062 C 19.789062 -36.179688 21.144531 -34.820312 22.40625 -33.367188 C 25.703125 -29.972656 28.808594 -26.480469 31.816406 -22.890625 C 32.785156 -21.726562 33.753906 -20.5625 34.628906 -19.398438 C 34.820312 -18.816406 35.113281 -18.332031 35.308594 -17.847656 C 35.695312 -17.070312 36.566406 -15.230469 36.082031 -14.160156 C 36.082031 -13.871094 36.082031 -13.578125 35.792969 -13.289062 C 35.015625 -12.125 33.074219 -11.929688 31.816406 -11.832031 C 29.679688 -11.640625 27.644531 -11.640625 25.605469 -11.832031 C 24.445312 -11.929688 23.28125 -12.125 22.117188 -12.511719 C 20.953125 -13.386719 19.882812 -14.453125 18.914062 -15.421875 C 17.167969 -17.265625 16.003906 -19.691406 15.132812 -22.019531 C 12.902344 -28.421875 12.609375 -35.308594 10.574219 -41.707031 C 9.796875 -44.035156 7.855469 -44.910156 5.527344 -44.617188 C 3.589844 -44.328125 2.132812 -42.484375 1.746094 -40.738281 C 1.164062 -37.925781 1.746094 -34.917969 2.132812 -32.203125 C 2.523438 -29.097656 2.910156 -25.996094 3.6875 -22.988281 C 5.140625 -17.652344 6.207031 -12.222656 6.789062 -6.789062 C 6.984375 -5.820312 7.273438 -4.945312 7.855469 -4.269531 C 8.148438 -2.523438 9.117188 -0.871094 10.183594 0.195312 C 11.15625 1.164062 12.707031 1.164062 13.675781 0.195312 C 14.9375 -0.871094 15.617188 -2.425781 16.003906 -4.074219 C 17.847656 -2.910156 19.882812 -2.035156 22.019531 -1.550781 C 25.121094 -0.679688 28.808594 -0.289062 32.105469 -0.777344 L 32.398438 -0.777344 C 38.507812 -1.066406 45.105469 -5.625 45.296875 -11.929688 C 45.6875 -14.453125 45.105469 -17.070312 44.035156 -19.496094 C 43.453125 -22.117188 42.097656 -24.539062 40.351562 -26.769531 C 37.828125 -29.972656 34.917969 -32.980469 32.105469 -35.984375 C 29.195312 -39.1875 26.09375 -42.289062 22.988281 -45.296875 L 19.011719 -49.082031 C 21.535156 -48.5 24.152344 -47.625 26.578125 -46.558594 C 31.234375 -44.425781 35.5 -41.417969 38.3125 -37.246094 C 38.410156 -37.246094 38.410156 -37.148438 38.507812 -37.148438 C 39.089844 -32.589844 40.738281 -26.1875 45.492188 -27.351562 C 46.851562 -27.742188 47.625 -29.195312 47.238281 -30.457031 C 46.945312 -32.105469 46.558594 -33.5625 46.460938 -35.210938 Z M 46.460938 -35.210938 "/></g></g></g><g fill="#2b2b2b" fill-opacity="1"><g transform="translate(314.702385, 88.874997)"><g><path d="M 2.230469 -51.214844 C 2.035156 -51.019531 2.035156 -50.730469 2.230469 -50.632812 C 4.363281 -51.601562 6.5 -52.476562 8.730469 -53.15625 C 15.132812 -55.386719 21.726562 -56.839844 28.324219 -58.296875 C 32.105469 -59.167969 35.984375 -60.136719 39.769531 -61.109375 C 38.894531 -61.109375 38.023438 -61.109375 37.148438 -61.011719 C 32.980469 -60.71875 29.003906 -59.945312 25.023438 -59.167969 L 22.792969 -58.585938 C 15.8125 -56.742188 8.632812 -54.609375 2.230469 -51.214844 Z M 56.648438 -11.738281 C 57.808594 -12.609375 58.585938 -13.96875 58.488281 -15.714844 C 58.101562 -21.242188 56.257812 -29.777344 48.789062 -28.226562 C 47.722656 -27.933594 46.753906 -27.449219 45.6875 -27.160156 L 41.902344 -25.996094 C 39.574219 -25.21875 37.246094 -24.347656 34.917969 -23.472656 C 33.464844 -22.988281 32.007812 -22.40625 30.554688 -21.824219 L 22.308594 -18.625 C 20.175781 -17.75 18.042969 -16.878906 15.90625 -15.90625 L 15.617188 -15.714844 C 15.617188 -15.90625 15.617188 -16.003906 15.617188 -16.101562 L 15.035156 -22.40625 C 17.75 -23.765625 20.371094 -25.121094 23.183594 -26.285156 C 27.742188 -28.226562 32.300781 -29.679688 36.957031 -30.941406 C 39.285156 -31.523438 41.707031 -32.007812 44.035156 -32.398438 C 46.269531 -32.882812 48.402344 -32.785156 50.4375 -33.753906 C 52.183594 -34.628906 53.347656 -36.761719 52.960938 -38.605469 C 52.765625 -39.574219 52.183594 -40.546875 51.3125 -41.03125 C 51.214844 -41.03125 51.214844 -41.03125 51.117188 -41.125 C 51.019531 -41.515625 50.828125 -41.902344 50.632812 -42.289062 C 50.535156 -42.484375 50.4375 -42.777344 50.246094 -43.066406 C 48.886719 -45.394531 46.558594 -45.492188 44.132812 -45.394531 C 42.96875 -45.296875 41.902344 -45.199219 40.738281 -45.007812 L 39.476562 -44.714844 C 36.375 -43.84375 33.171875 -42.96875 30.070312 -42.195312 C 24.539062 -40.15625 19.207031 -37.828125 13.773438 -35.5 C 13.773438 -35.984375 13.191406 -39.476562 13.09375 -40.449219 L 13.289062 -40.640625 C 16.296875 -41.902344 19.398438 -43.066406 22.503906 -44.132812 C 23.570312 -44.617188 33.171875 -47.527344 38.121094 -48.886719 C 38.3125 -48.886719 38.507812 -48.984375 38.703125 -49.082031 C 40.933594 -49.664062 43.164062 -50.339844 45.296875 -51.019531 L 50.148438 -52.476562 C 50.535156 -54.414062 50.246094 -56.453125 49.566406 -58.488281 C 49.082031 -58.878906 48.5 -59.363281 48.015625 -59.75 L 46.460938 -60.332031 C 45.878906 -60.527344 45.199219 -60.625 44.523438 -60.71875 C 39.476562 -59.363281 34.433594 -58.003906 29.292969 -56.839844 C 22.699219 -55.484375 16.101562 -54.027344 9.699219 -51.796875 C 7.664062 -51.117188 5.527344 -50.339844 3.492188 -49.46875 C 3.394531 -49.175781 3.199219 -48.886719 3.105469 -48.691406 C 1.746094 -47.527344 0.871094 -46.074219 0.679688 -44.132812 C 0.484375 -42.484375 1.066406 -40.640625 2.230469 -39.382812 L 3.394531 -28.324219 L 4.558594 -16.683594 C 4.851562 -13.289062 5.042969 -9.796875 5.625 -6.5 C 4.753906 -3.976562 6.402344 -1.066406 8.828125 -0.0976562 C 8.730469 0.386719 8.730469 0.777344 8.921875 1.261719 C 9.699219 2.910156 11.445312 3.007812 12.996094 2.714844 C 13.386719 2.714844 13.96875 2.617188 13.96875 2.617188 C 13.871094 2.714844 19.398438 1.066406 20.5625 0.289062 L 20.660156 0.195312 C 21.726562 -0.289062 22.792969 -0.679688 23.863281 -1.164062 C 24.054688 -1.261719 24.347656 -1.359375 24.539062 -1.453125 L 24.636719 -1.453125 C 27.839844 -2.8125 31.136719 -3.976562 34.433594 -5.140625 C 41.320312 -7.566406 48.5 -9.410156 55.675781 -10.765625 C 56.257812 -10.863281 56.550781 -11.25 56.648438 -11.738281 Z M 33.171875 -32.300781 L 33.269531 -32.007812 C 32.6875 -31.816406 32.203125 -31.621094 31.621094 -31.332031 C 26.769531 -29.390625 21.726562 -27.546875 16.972656 -25.121094 C 17.75 -25.800781 18.332031 -26.769531 18.527344 -27.839844 C 20.371094 -28.324219 22.210938 -28.90625 24.152344 -29.488281 C 27.160156 -30.457031 30.167969 -31.332031 33.171875 -32.300781 Z M 11.738281 1.261719 C 13.675781 0.777344 15.519531 0 17.363281 -0.679688 C 19.207031 -1.261719 20.953125 -1.941406 22.699219 -2.617188 L 22.699219 -2.425781 C 21.242188 -1.648438 19.789062 -0.871094 18.234375 -0.0976562 C 17.554688 0.289062 16.78125 0.679688 16.003906 1.066406 C 15.90625 1.164062 15.8125 1.164062 15.714844 1.164062 C 15.421875 1.261719 13.191406 1.453125 11.738281 1.261719 Z M 11.738281 1.261719 "/></g></g></g></svg>